<svg xmlns="http://www.w3.org/2000/svg" xmlns:xlink="http://www.w3.org/1999/xlink" width="452px" height="223px" viewBox="0 0 452 223" version="1.1">
  <g id="Page-1" stroke="none" stroke-width="1" fill="none" fill-rule="evenodd">
    <g id="bigT" transform="translate(267.000000, 2.000000)" stroke="#328CC1" stroke-width="4" stroke-linecap="square">
      <path d="M2,216 L70.09375,216" id="Path"></path>
      <path d="M2,1.82421875 L2,215.59168" id="Path-4"></path>
      <path d="M71,216 L71,64.6654571" id="Path-5"></path>
      <path d="M181,2.66601562 L181,63.67" id="Path-7"></path>
      <path d="M1.79,1.82 L180.566725,2.77148438" id="Path-3"></path>
      <path d="M71.09,64 L181.17,64" id="Path-9"></path>
    </g>
    <g id="bigA" transform="translate(3.000000, 3.000000)" stroke="#328CC1" stroke-width="4">
      <path d="M0.1796875,216 L68.2734375,216" id="Path" stroke-linecap="square"></path>
      <path d="M167,216 L239,216" id="Path" stroke-linecap="square"></path>
      <path d="M137.199219,2 L239,2" id="Path-2" stroke-linecap="square"></path>
      <path d="M239,1.82421875 L239,215.59168" id="Path-4" stroke-linecap="square"></path>
      <path d="M167,215.113281 L167,65.9966469" id="Path-5" stroke-linecap="square"></path>
      <path d="M136.02,3 L0,215" id="Path-6" stroke-linecap="square"></path>
      <path d="M68.27,217 L166.816406,65.67" id="Path-8"></path>
    </g>
    <g id="lilA" transform="translate(28.000000, 17.000000)" stroke="#D9B310" stroke-width="4">
      <path d="M116,2 L1,182" id="Path-6" stroke-linecap="square"></path>
      <path d="M159,186 L200,186" id="Path" stroke-linecap="square"></path>
      <path d="M0.5,184 L39.5,184" id="Path" stroke-linecap="square"></path>
      <path d="M155,186.113281 L155,28" id="Path-5" stroke-linecap="square"></path>
      <path d="M118,1 L200,1" id="Path-2" stroke-linecap="square"></path>
      <path d="M144.5,27.67 L154,27.67" id="Path-2" stroke-linecap="square"></path>
      <path d="M39.27,185 L144.000003,27" id="Path-8"></path>
      <path d="M200,2 L200,186" id="Path-4" stroke-linecap="square"></path>
    </g>
    <g id="lilT" transform="translate(281.000000, 18.000000)" stroke="#D9B310" stroke-width="4" stroke-linecap="square">
      <path d="M1,185 L44,185" id="Path"></path>
      <path d="M1,1 L1,183" id="Path-4"></path>
      <path d="M44,183 L44,33" id="Path-5"></path>
      <path d="M151,1 L151,29" id="Path-7"></path>
      <path d="M1,1 L150,1" id="Path-3"></path>
      <path d="M44.09,33 L151.000004,33" id="Path-9"></path>
    </g>
  </g>
</svg>
